<svg width="180" height="44" version="1.1" viewBox="0 0 180 44" xmlns="http://www.w3.org/2000/svg">
 <defs>
  <marker id="CapTriangle" overflow="visible" markerHeight="1" markerWidth="1.5" orient="auto-start-reverse" preserveAspectRatio="none" viewBox="0 0 0.525 1">
   <path transform="scale(.5)" d="m0-1 1 1-1 1-0.05-1z" fill="context-stroke"/>
  </marker>
  <marker id="marker2" overflow="visible" markerHeight="0.99999994" markerWidth="1.5" orient="auto-start-reverse" preserveAspectRatio="none" viewBox="0 0 0.525 1">
   <path transform="scale(.5)" d="m0-1 1 1-1 1-0.05-1z" fill="context-stroke"/>
  </marker>
 </defs>
 <g transform="translate(4,2)">
  <rect x="-4" y="-2" width="180" height="44" ry="0" fill="#fbebe3"/>
  <rect x="3.9885" y="3.9885" width="30.523" height="32.023" ry="7.04689" fill="#f6e1bf" stroke="#cfba99" stroke-linejoin="round"/>
  <path d="m27.1 29.5v0.5h-15.5l7.500001-9.999999-7.500001-10h15.5v0.5" fill="none" marker-end="url(#marker2)" marker-start="url(#CapTriangle)" stroke="#1d130e" stroke-width="2.3"/>
 </g>
 <g transform="translate(4,2)" fill="#1d130e" aria-label="数値解析ノート">
  <path d="m41.53919 15.00651h7.7l0.84-1.08t0.26 0.22 0.62 0.54q0.38 0.3 0.68 0.6-0.08 0.3-0.52 0.3h-9.42zm-0.2 6.7h8.06l0.9-1.12t0.28 0.22 0.66 0.54q0.4 0.32 0.7 0.62-0.06 0.32-0.5 0.32h-9.96zm4.36-10.56 1.98 0.2q-0.04 0.2-0.22 0.34-0.16 0.14-0.52 0.2v7.36q0 0.08-0.16 0.18-0.14 0.1-0.38 0.18-0.22 0.08-0.46 0.08h-0.24zm-0.46 8.66 1.9 0.38q-0.06 0.2-0.24 0.32-0.18 0.1-0.56 0.12-0.18 0.44-0.5 1.12t-0.7 1.46q-0.38 0.76-0.76 1.5-0.38 0.72-0.7 1.26-0.22 0.1-0.58 0.08-0.36-0.04-0.74-0.22 0.34-0.52 0.76-1.3 0.42-0.8 0.84-1.68 0.44-0.9 0.76-1.7 0.34-0.8 0.52-1.34zm0.12-4.76h1.42v0.3q-0.82 1.52-2.18 2.74t-3.12 2.08l-0.2-0.32q1.34-0.94 2.38-2.18 1.06-1.26 1.7-2.62zm1.5 0.92q1.16 0.26 1.9 0.64t1.12 0.78q0.4 0.38 0.52 0.76 0.12 0.36 0 0.62-0.1 0.24-0.36 0.32-0.24 0.06-0.58-0.12-0.24-0.48-0.7-0.98-0.46-0.52-1.02-1t-1.06-0.82zm-4.38-4.26q0.84 0.32 1.32 0.72 0.48 0.38 0.68 0.78 0.22 0.38 0.22 0.72 0 0.32-0.18 0.52-0.16 0.2-0.4 0.22t-0.54-0.22q-0.06-0.66-0.48-1.38-0.42-0.74-0.84-1.22zm5.7 10.06h1.56q-0.4 2.08-1.38 3.58t-2.62 2.52q-1.64 1-4.04 1.64l-0.14-0.3q2.06-0.8 3.42-1.84 1.38-1.04 2.16-2.42 0.78-1.4 1.04-3.18zm-4.04 2.74q1.7 0.2 2.82 0.6 1.14 0.38 1.78 0.84 0.64 0.44 0.88 0.88 0.26 0.42 0.2 0.76-0.06 0.32-0.32 0.46t-0.64-0.02q-0.36-0.44-1.04-1-0.68-0.58-1.64-1.16t-2.14-1.04zm4.86-12.9 1.74 0.78q-0.08 0.14-0.26 0.24-0.18 0.08-0.48 0.06-0.46 0.54-0.98 1.1-0.52 0.54-1.02 0.92l-0.3-0.18q0.3-0.54 0.64-1.32 0.36-0.8 0.66-1.6zm3.72 4.16q0.44 2.72 1.28 5.12 0.86 2.38 2.32 4.28 1.48 1.88 3.74 3.12l-0.06 0.2q-0.44 0.06-0.78 0.28-0.32 0.24-0.46 0.7-2.04-1.44-3.32-3.44-1.28-2.02-1.98-4.48t-1.06-5.22zm4.04-0.1h1.5q-0.24 2.52-0.84 4.62-0.58 2.1-1.68 3.82-1.08 1.72-2.82 3.06-1.72 1.32-4.3 2.3l-0.16-0.28q2.22-1.1 3.72-2.48 1.52-1.4 2.46-3.08 0.96-1.68 1.44-3.66 0.5-2 0.68-4.3zm-3.48-4.48 2.14 0.48q-0.06 0.2-0.24 0.32-0.16 0.12-0.48 0.14-0.6 2.5-1.58 4.72-0.96 2.2-2.28 3.72l-0.3-0.18q0.64-1.18 1.18-2.66t0.94-3.14q0.4-1.68 0.62-3.4zm-0.56 4.48h4.7l0.92-1.18t0.18 0.14 0.44 0.36q0.28 0.22 0.58 0.48 0.3 0.24 0.54 0.48-0.08 0.32-0.52 0.32h-6.84z"/>
  <path d="m68.19919 13.78651h9.98l0.96-1.22t0.18 0.14 0.44 0.38q0.28 0.22 0.58 0.48 0.3 0.24 0.54 0.46-0.06 0.32-0.52 0.32h-12zm-0.14 2.6 1.98 0.2q-0.04 0.2-0.2 0.36-0.16 0.14-0.54 0.18v11.86q0 0.08-0.14 0.18-0.14 0.12-0.38 0.2-0.22 0.08-0.46 0.08h-0.26zm0.96 11.24h9.28l0.96-1.2t0.18 0.14 0.44 0.36q0.28 0.22 0.58 0.48 0.32 0.24 0.56 0.5-0.06 0.32-0.52 0.32h-11.48zm2.8-8.54h6.14v0.58h-6.14zm0.02 2.8h6.06v0.58h-6.06zm0.02 2.86h6v0.6h-6zm-0.74-8.44v-0.64l1.48 0.64h4.78l0.68-0.82 1.48 1.16q-0.1 0.1-0.3 0.2-0.18 0.1-0.48 0.14v9.06q0 0.08-0.32 0.26-0.32 0.16-0.78 0.16h-0.2v-9.6h-5.1v9.42q0 0.08-0.28 0.24t-0.76 0.16h-0.2zm3.02-5.16 2 0.18q-0.08 0.46-0.68 0.54-0.08 0.72-0.2 1.62-0.1 0.88-0.2 1.72-0.1 0.82-0.2 1.44h-1.1q0.08-0.66 0.14-1.6 0.06-0.96 0.12-1.98t0.12-1.92zm-9.46 5.92 0.62-0.8 1.28 0.48q-0.04 0.14-0.18 0.24-0.14 0.08-0.42 0.12v11.94q0 0.04-0.16 0.14-0.16 0.12-0.4 0.2t-0.5 0.08h-0.24zm1.74-5.88 2.08 0.64q-0.06 0.18-0.24 0.3t-0.52 0.1q-0.66 1.82-1.52 3.5-0.84 1.68-1.82 3.12t-2.06 2.54l-0.3-0.2q0.84-1.22 1.64-2.82 0.82-1.62 1.52-3.46 0.72-1.84 1.22-3.72z"/>
  <path d="m86.43919 13.16651h3.5v0.6h-3.78zm2.78 0h-0.22l0.76-0.76 1.4 1.28q-0.12 0.12-0.32 0.16-0.18 0.02-0.46 0.04-0.28 0.38-0.64 0.9t-0.78 1.04q-0.4 0.5-0.8 0.86h-0.4q0.3-0.48 0.58-1.12 0.28-0.66 0.52-1.32t0.36-1.08zm-4.32 3.26v-0.64l1.4 0.64h-0.22v3.92q0 1.02-0.06 2.2-0.04 1.16-0.26 2.38t-0.7 2.38q-0.48 1.14-1.34 2.12l-0.3-0.22q0.72-1.34 1.02-2.82t0.38-3.02 0.08-3zm0.66 0h5.52v0.58h-5.52zm0 3.24h5.52v0.58h-5.52zm-0.08 3.44h5.6v0.6h-5.6zm5.02-6.68h-0.22l0.64-0.8 1.64 1.22q-0.1 0.12-0.34 0.24-0.24 0.1-0.54 0.16v10.46q0 0.46-0.12 0.8-0.12 0.36-0.54 0.58-0.4 0.22-1.24 0.32-0.04-0.26-0.14-0.48-0.08-0.22-0.28-0.34-0.2-0.16-0.58-0.26t-0.98-0.18v-0.3t0.28 0.02q0.3 0.02 0.68 0.04 0.4 0.02 0.76 0.04 0.38 0.02 0.52 0.02 0.28 0 0.36-0.1 0.1-0.1 0.1-0.3zm-2.82 0h1.1v6.88h-1.1zm4.48-3.78h8.160004v0.58h-7.980004zm7.64 0h-0.2l0.700004-0.74 1.46 1.16q-0.1 0.12-0.28 0.18t-0.48 0.1q-0.04 1.36-0.16 2.28t-0.32 1.48-0.520004 0.82q-0.3 0.22-0.76 0.36-0.44 0.12-0.9 0.12 0-0.26-0.06-0.48-0.06-0.24-0.24-0.38-0.16-0.12-0.56-0.24-0.38-0.12-0.78-0.18v-0.34q0.3 0.02 0.68 0.06 0.4 0.02 0.74 0.06 0.36 0.02 0.52 0.02 0.42 0 0.56-0.16 0.24-0.22 0.38-1.22 0.14-1.02 0.22-2.9zm-3.44 5.88 1.92 0.2q-0.02 0.2-0.16 0.34-0.14 0.12-0.48 0.18v9.72q0 0.1-0.16 0.2t-0.4 0.18q-0.24 0.1-0.48 0.1h-0.24zm-4.34 6.16h7.74l0.860004-1.08t0.26 0.24q0.28 0.22 0.66 0.54 0.38 0.3 0.66 0.58-0.08 0.32-0.5 0.32h-9.520004zm3.38-12.04h1.5q-0.34 2.28-1.5 3.76-1.14 1.48-3.34 2.38l-0.14-0.3q1.74-1.06 2.52-2.5t0.96-3.34zm-1.62 6.04 1.78 0.54q-0.08 0.16-0.24 0.28t-0.48 0.1q-0.46 1.26-1.14 2.36-0.68 1.08-1.52 1.8l-0.28-0.2q0.6-0.9 1.1-2.18t0.78-2.7zm-0.2 2.58h5.72l0.820004-1t0.26 0.2 0.6 0.5q0.36 0.28 0.64 0.56-0.08 0.32-0.5 0.32h-7.540004zm-7.08-10.16 1.88 0.58q-0.06 0.16-0.24 0.3-0.18 0.12-0.5 0.1-0.7 1.82-1.74 3.38-1.02 1.54-2.22 2.56l-0.28-0.22q0.94-1.18 1.78-2.94 0.84-1.78 1.32-3.76z"/>
  <path d="m104.4792 15.76651h5.5l0.88-1.14t0.28 0.22q0.3 0.22 0.68 0.56 0.38 0.32 0.68 0.64-0.06 0.32-0.52 0.32h-7.34zm3.12 0h1.4v0.32q-0.56 2.54-1.66 4.82-1.1 2.26-2.74 4.06l-0.3-0.24q0.82-1.24 1.44-2.72 0.64-1.48 1.1-3.06 0.46-1.6 0.76-3.18zm0.22-4.58 2 0.2q-0.04 0.22-0.2 0.36-0.14 0.14-0.52 0.2v17.02q0 0.08-0.16 0.2t-0.38 0.2-0.46 0.08h-0.28zm1.28 7.52q1.08 0.4 1.72 0.88 0.66 0.48 0.98 0.96 0.32 0.46 0.36 0.86 0.04 0.38-0.12 0.64-0.16 0.24-0.44 0.28-0.28 0.02-0.62-0.22-0.12-0.54-0.48-1.12-0.34-0.6-0.78-1.16-0.42-0.56-0.84-0.96zm4-5.96 1.72 0.6q-0.08 0.16-0.42 0.22v5.48q0 1.28-0.12 2.68-0.1 1.38-0.48 2.76-0.36 1.38-1.12 2.66-0.76 1.26-2.06 2.3l-0.28-0.26q1.22-1.44 1.8-3.1 0.6-1.66 0.78-3.44t0.18-3.6zm6.88-1.6 1.74 1.5q-0.28 0.28-1.06 0.02-0.82 0.24-1.94 0.5t-2.36 0.48q-1.24 0.2-2.46 0.3l-0.08-0.32q1.1-0.28 2.26-0.7 1.18-0.44 2.2-0.9 1.04-0.48 1.7-0.88zm-6.26 6.92h6.48l0.94-1.16t0.16 0.14q0.18 0.14 0.44 0.36 0.28 0.22 0.56 0.48 0.3 0.24 0.54 0.46-0.08 0.32-0.52 0.32h-8.6zm4.48 0.04h1.32v10.98q0 0.06-0.3 0.22-0.3 0.18-0.8 0.18h-0.22z"/>
  <path d="m124.8792 27.82651q1.96-1.3 3.56-2.78t2.82-2.98q1.22-1.52 2.08-2.94t1.36-2.58q0.18-0.42 0.26-0.72t0.08-0.52q0-0.26-0.14-0.44-0.12-0.18-0.42-0.34-0.3-0.18-0.76-0.38l0.1-0.4q0.36-0.02 0.7 0.02 0.34 0.02 0.66 0.1 0.44 0.1 0.88 0.4t0.74 0.66 0.3 0.64q0 0.22-0.14 0.36-0.12 0.14-0.3 0.32-0.18 0.16-0.36 0.52-0.88 1.78-1.96 3.42-1.06 1.62-2.4 3.06t-3 2.72q-1.66 1.26-3.72 2.34z"/>
  <path d="m142.3792 22.34651q-0.28 0-0.66-0.28-0.36-0.28-0.68-0.66-0.3-0.38-0.44-0.72-0.1-0.28-0.14-0.54-0.04-0.28-0.04-0.58l0.4-0.12q0.22 0.34 0.42 0.64 0.22 0.3 0.48 0.48 0.28 0.18 0.7 0.18 0.44 0 1.26-0.02 0.82-0.04 1.84-0.08 1.02-0.06 2.06-0.12 1.06-0.06 2-0.12 0.96-0.06 1.64-0.1 0.68-0.06 0.9-0.06 1-0.08 1.52-0.14 0.52-0.08 0.9-0.08t0.76 0.12q0.4 0.1 0.64 0.3 0.26 0.18 0.26 0.46t-0.18 0.44q-0.18 0.14-0.7 0.14t-1.12-0.02q-0.58-0.02-1.5-0.02-0.36 0-1.18 0.04-0.82 0.02-1.88 0.08-1.04 0.04-2.08 0.12-1.04 0.06-1.92 0.12-0.86 0.06-1.32 0.12-0.56 0.06-0.88 0.16t-0.56 0.18q-0.22 0.08-0.5 0.08z"/>
  <path d="m161.1992 28.68651q-0.32 0-0.54-0.3t-0.34-0.72-0.12-0.76q0-0.32 0.1-0.66t0.16-0.9 0.08-1.38q0.04-0.84 0.06-1.74 0.02-0.92 0.02-1.76t0-1.4q0-0.62-0.02-1.28 0-0.68 0-1.34t-0.02-1.22q-0.02-0.58-0.08-0.94-0.04-0.48-0.4-0.64t-1.16-0.24l-0.02-0.42q0.4-0.08 0.7-0.16t0.58-0.08q0.32 0 0.68 0.14 0.38 0.12 0.72 0.3 0.36 0.18 0.58 0.4 0.22 0.2 0.22 0.38 0 0.2-0.1 0.34-0.08 0.12-0.2 0.3-0.1 0.16-0.14 0.5-0.06 0.52-0.1 1.22-0.02 0.7-0.04 1.42-0.02 0.7-0.02 1.26 0 0.42-0.02 1.26 0 0.82 0 1.86 0 1.02 0 2.06t0 1.92q0.02 0.66 0.04 1.12 0.02 0.44 0.02 0.7 0 0.4-0.16 0.58t-0.48 0.18zm6.02-6.04q-0.24 0-0.44-0.12-0.18-0.12-0.4-0.34-0.2-0.22-0.5-0.5-0.3-0.3-0.74-0.64-0.72-0.5-1.6-0.94-0.86-0.46-1.96-0.86v-0.66q1.5 0.3 2.9 0.82t2.26 1.06q0.46 0.3 0.78 0.68 0.34 0.36 0.34 0.82 0 0.26-0.16 0.48-0.16 0.2-0.48 0.2z"/>
 </g>
</svg>
